<svg width="164" height="113" viewBox="0 0 164 113" fill="none" xmlns="http://www.w3.org/2000/svg">
<rect x="56.7919" width="79.4006" height="80.3158" transform="rotate(45 56.7919 0)" fill="#196E9E"/>
<rect x="63.7901" y="7.0018" width="7.63277" height="80.2885" transform="rotate(45 63.7901 7.0018)" fill="white"/>
<rect x="76.2799" y="19.512" width="7.63277" height="80.2745" transform="rotate(45 76.2799 19.512)" fill="white"/>
<rect x="88.1447" y="31.6472" width="7.63277" height="80.0919" transform="rotate(45 88.1447 31.6472)" fill="white"/>
<rect x="70.0981" y="84.4952" width="7.63277" height="10.2347" transform="rotate(-45 70.0981 84.4952)" fill="#1F3368"/>
<rect x="57.5918" y="72.989" width="7.63277" height="9.34327" transform="rotate(-45 57.5918 72.989)" fill="#1F3368"/>
<rect x="45.1168" y="61.514" width="7.63277" height="9.27567" transform="rotate(-45 45.1168 61.514)" fill="#1F3368"/>
<rect x="100.145" y="43.6472" width="7.63277" height="80.1154" transform="rotate(45 100.145 43.6472)" fill="white"/>
<rect x="107.145" width="79.4006" height="79.4006" transform="rotate(45 107.145 0)" fill="#196E9E"/>
</svg>
